<?xml version="1.0" standalone="no"?>
<!DOCTYPE svg PUBLIC "-//W3C//DTD SVG 20010904//EN"
 "http://www.w3.org/TR/2001/REC-SVG-20010904/DTD/svg10.dtd">
<svg version="1.0" xmlns="http://www.w3.org/2000/svg"
 width="477.000000pt" height="242.000000pt" viewBox="0 0 477.000000 242.000000"
 preserveAspectRatio="xMidYMid meet">
<metadata>
Created by potrace 1.16, written by Peter Selinger 2001-2019
</metadata>
<g transform="translate(0.000000,242.000000) scale(0.100000,-0.100000)"
fill="#000000" stroke="none">
<path d="M835 2015 c-245 -54 -439 -234 -514 -479 -96 -312 58 -662 355 -807
112 -54 202 -72 339 -66 188 8 311 63 450 202 75 75 130 162 171 270 7 19 8
18 12 -4 2 -16 -12 -56 -38 -108 -120 -235 -363 -384 -628 -385 -123 0 -214
21 -322 74 -68 34 -103 60 -176 133 -143 142 -201 271 -211 465 -8 178 44 341
150 473 62 75 60 97 -3 28 -102 -112 -170 -299 -170 -465 0 -124 21 -214 74
-321 77 -154 183 -262 331 -335 109 -53 185 -70 330 -70 123 0 175 10 275 50
144 58 298 200 368 341 30 59 43 78 48 66 5 -13 18 -17 55 -17 61 0 61 5 14
120 -20 47 -35 101 -35 123 0 30 -3 38 -14 34 -18 -7 -24 9 -36 95 -22 156
-91 291 -205 404 -156 155 -405 227 -620 179z m315 -46 c174 -47 332 -177 410
-336 18 -36 30 -66 28 -69 -3 -2 -17 7 -31 20 -15 14 -27 21 -27 16 0 -6 -8
-10 -19 -10 -24 0 -71 -37 -71 -56 0 -27 -15 -13 -43 39 -97 186 -331 286
-542 232 -163 -43 -295 -179 -340 -350 -40 -155 8 -326 125 -446 79 -80 206
-139 302 -139 54 0 47 18 -9 25 -237 32 -403 217 -403 450 0 274 240 482 513
444 84 -11 192 -66 256 -130 51 -51 111 -154 111 -191 0 -25 -17 -31 -23 -8
-3 11 -10 20 -15 20 -7 0 -8 -20 -5 -54 5 -48 0 -68 -51 -196 -31 -79 -56
-149 -56 -156 0 -9 11 -14 30 -14 30 0 40 -13 19 -26 -7 -4 -7 -10 -1 -16 13
-13 51 28 84 90 22 40 25 42 67 42 52 0 121 19 121 33 0 6 -3 7 -7 4 -3 -4
-14 11 -24 33 -16 36 -22 40 -55 40 -36 0 -36 1 -31 33 6 36 49 137 58 137 9
0 59 -118 59 -141 0 -10 4 -19 10 -19 5 0 12 -17 16 -37 16 -86 -80 -271 -194
-373 -64 -57 -206 -131 -292 -151 -30 -7 -100 -12 -155 -12 -84 0 -114 5 -186
30 -388 134 -562 567 -372 926 51 96 164 209 260 260 146 77 331 98 483 56z"/>
<path d="M895 1923 c-224 -31 -427 -215 -481 -436 -91 -372 187 -726 572 -727
76 0 200 31 266 67 63 34 140 101 132 115 -4 5 -18 -1 -33 -16 -42 -40 -141
-95 -211 -117 -90 -28 -231 -29 -320 0 -238 76 -400 292 -400 536 0 254 175
476 425 540 32 8 76 15 97 15 27 0 38 4 38 15 0 15 -19 17 -85 8z"/>
<path d="M1948 1583 c-46 -8 -50 -85 -5 -97 12 -3 83 -6 158 -6 149 0 149 0
149 -60 0 -19 -7 -33 -19 -40 -11 -5 -84 -10 -164 -10 -123 0 -146 -2 -151
-16 -8 -20 -8 -258 0 -278 4 -11 19 -16 50 -16 51 0 53 3 56 125 l3 80 60 0
59 0 61 -102 60 -102 53 -1 c32 0 52 4 52 11 0 6 -22 53 -50 103 l-49 92 34
27 c23 18 38 42 46 70 21 78 -5 182 -54 209 -22 12 -292 21 -349 11z"/>
<path d="M2528 1583 c-26 -4 -28 -8 -28 -47 0 -55 3 -56 183 -56 l137 0 10
-26 c7 -18 7 -34 -3 -52 l-12 -27 -155 -5 -155 -5 -3 -153 -3 -153 48 3 48 3
5 100 5 100 130 5 c74 3 139 10 151 17 49 28 71 153 40 228 -26 62 -51 70
-221 72 -82 0 -162 -1 -177 -4z"/>
<path d="M3077 1583 c-4 -3 -7 -123 -7 -265 l0 -259 48 3 47 3 3 249 c2 175
-1 253 -9 262 -12 14 -70 19 -82 7z"/>
<path d="M3328 1583 c-26 -4 -28 -8 -28 -47 0 -51 9 -56 106 -56 61 0 62 0 68
-31 3 -17 6 -112 6 -211 l0 -179 48 3 47 3 5 205 5 205 45 2 c25 2 64 5 88 9
l42 5 0 43 0 43 -46 7 c-50 6 -340 6 -386 -1z"/>
<path d="M3958 970 c-13 -20 -24 -20 -598 -20 l-585 0 -225 -245 -225 -245
-491 0 c-428 0 -493 2 -498 15 -14 36 -73 4 -61 -33 8 -28 41 -34 61 -11 16
18 39 19 503 19 l486 0 225 245 225 245 592 0 c384 0 594 -4 598 -10 10 -16
44 -11 54 8 22 42 -36 72 -61 32z"/>
</g>
</svg>
