<?xml version="1.0" standalone="no"?>
<!DOCTYPE svg PUBLIC "-//W3C//DTD SVG 20010904//EN"
 "http://www.w3.org/TR/2001/REC-SVG-20010904/DTD/svg10.dtd">
<svg version="1.0" xmlns="http://www.w3.org/2000/svg"
 width="564.000000pt" height="564.000000pt" viewBox="0 0 564.000000 564.000000"
 preserveAspectRatio="xMidYMid meet">
<metadata>
Created by potrace 1.16, written by Peter Selinger 2001-2019
</metadata>
<g transform="translate(0.000000,564.000000) scale(0.100000,-0.100000)"
fill="#000000" stroke="none">
<path d="M0 2820 l0 -2820 2820 0 2820 0 0 2820 0 2820 -2820 0 -2820 0 0
-2820z m2424 721 c5 -7 32 -143 96 -469 10 -51 20 -95 23 -98 3 -3 106 28 229
70 122 41 224 73 226 72 4 -4 -240 -96 -361 -136 -78 -26 -97 -35 -93 -48 3
-10 14 -62 25 -117 68 -349 69 -364 36 -351 -8 3 -97 57 -197 119 -186 116
-352 210 -389 222 -11 4 -19 14 -17 23 2 12 40 24 153 47 175 37 315 71 322
79 3 3 -11 88 -32 188 -21 101 -42 207 -47 236 -6 28 -13 52 -16 52 -4 0 -34
-42 -67 -93 -139 -213 -358 -495 -495 -637 -98 -101 -92 -90 65 117 108 143
363 517 457 672 25 42 43 61 57 61 11 0 22 -4 25 -9z m1047 -517 c8 -9 12 -28
10 -42 -2 -22 0 -24 23 -18 40 10 974 6 1026 -4 35 -7 23 -8 -55 -5 -115 4
-578 -12 -835 -28 l-174 -12 -8 -35 c-15 -67 -12 -193 6 -234 l16 -38 56 4 57
5 -34 -18 c-46 -24 -62 -23 -96 5 -40 34 -54 89 -54 207 0 95 -1 99 -22 99
-37 0 -341 -30 -358 -35 -20 -7 -43 20 -36 40 4 8 16 17 29 19 13 3 86 17 163
32 77 15 167 37 200 49 75 28 70 28 86 9z m-323 -293 c89 -45 57 -151 -46
-151 -16 0 -50 6 -75 14 -26 8 -49 10 -52 5 -3 -4 5 -30 18 -56 32 -63 47
-138 46 -226 -1 -89 -10 -121 -33 -125 -26 -5 -53 24 -73 82 -14 42 -17 82
-16 220 1 181 4 191 53 182 14 -2 51 -11 83 -20 44 -13 62 -14 78 -6 20 11 20
12 3 31 -18 20 -101 49 -138 49 -12 0 -33 -6 -48 -14 -26 -14 -27 -13 -15 5 6
10 23 23 37 29 38 15 131 5 178 -19z m-444 0 c3 -4 26 -4 51 2 25 6 48 7 52 3
5 -4 10 -33 13 -64 l5 -57 45 -5 44 -5 -27 -12 c-55 -25 -100 -6 -110 47 -6
27 -10 30 -42 30 -31 0 -67 11 -84 26 -6 5 30 44 40 44 4 0 10 -4 13 -9z"/>
<path d="M2445 2919 c-56 -17 -330 -87 -355 -91 -20 -2 -4 -14 81 -60 58 -31
169 -95 248 -142 78 -47 144 -86 147 -86 6 0 4 14 -27 160 -35 165 -51 230
-58 229 -3 0 -19 -5 -36 -10z"/>
</g>
</svg>
